<svg width="1054" height="2481" viewBox="0 0 1054 2481" fill="none" xmlns="http://www.w3.org/2000/svg">
<path d="M594.291 1673.09V637.039H476.566V1673.09" fill="#E5005B"/>
<path d="M594.289 1673.09V2659C594.289 2691.21 567.927 2717.31 535.394 2717.31C502.86 2717.31 476.498 2691.21 476.498 2659V1673.09H594.289Z" fill="#213A8F"/>
<path d="M476.566 637.032V57.3035C476.566 25.0971 502.929 -1 535.462 -1C567.996 -1 594.358 25.0971 594.358 57.3035V637.098H476.566V637.032Z" fill="#FFD500"/>
<path d="M410.399 1673.94L141.41 1519.15C83.2515 1485.68 39.3813 1410.25 39.3813 1343.71V994.089C39.3813 927.485 83.2515 852.049 141.41 818.647L410.198 663.99L525.642 732.387L200.574 919.383C178.639 932 157.173 968.988 157.173 994.089V1343.71C157.173 1368.81 178.706 1405.8 200.574 1418.42L525.441 1605.35" fill="url(#paint0_linear_3320_22769)"/>
<path d="M524.233 1607.88L853.527 1418.36C875.462 1405.74 896.927 1368.75 896.927 1343.65V994.029C896.927 968.928 875.395 931.941 853.527 919.324L526.782 731.331L524.031 594.935L912.758 818.587C970.916 852.055 1014.79 927.491 1014.79 994.029V1343.65C1014.79 1410.26 970.916 1485.69 912.758 1519.09L521.549 1744.21L524.233 1607.88Z" fill="url(#paint1_linear_3320_22769)"/>
<path d="M521.544 1744.26L161.192 1951.65C139.257 1964.26 117.792 2001.25 117.792 2026.35V2422.25C117.792 2454.45 91.4296 2480.55 58.8959 2480.55C26.3623 2480.55 0 2454.39 0 2422.18V2026.29C0 1959.75 43.8701 1884.24 101.961 1850.84L524.228 1607.87L521.544 1744.26Z" fill="url(#paint2_linear_3320_22769)"/>
<path d="M526.755 731.329L29.2919 445.058C1.18547 428.855 -8.33984 393.196 7.96052 365.372C24.328 337.548 60.3497 328.119 88.4561 344.255L524.004 594.867L526.755 731.329Z" fill="#C8D400"/>
<path d="M409.958 663.924L965.445 344.25C993.551 328.114 1029.57 337.543 1045.94 365.367C1062.24 393.191 1052.72 428.85 1024.61 445.053L525.402 732.321L409.958 663.924Z" fill="#FFED00"/>
<path d="M525.276 1605.35L951.97 1850.85C1010.13 1884.32 1053.93 1959.76 1053.93 2026.29V2459.19C1053.93 2491.39 1027.57 2517.49 995.035 2517.49C962.502 2517.49 936.139 2491.39 936.139 2459.19V2026.29C936.139 2001.19 914.607 1964.21 892.739 1951.59L410.167 1673.95L525.276 1605.35Z" fill="url(#paint3_linear_3320_22769)"/>
<defs>
<linearGradient id="paint0_linear_3320_22769" x1="76.1746" y1="1462.59" x2="663.723" y2="869.076" gradientUnits="userSpaceOnUse">
<stop offset="0.4913" stop-color="#EC6608"/>
<stop offset="0.6029" stop-color="#FFED00"/>
</linearGradient>
<linearGradient id="paint1_linear_3320_22769" x1="274.867" y1="1500.1" x2="935.314" y2="832.941" gradientUnits="userSpaceOnUse">
<stop offset="0.4388" stop-color="#007BC4"/>
<stop offset="0.4583" stop-color="#0E82B1"/>
<stop offset="0.4977" stop-color="#349581"/>
<stop offset="0.553" stop-color="#6FB433"/>
<stop offset="0.5592" stop-color="#76B82A"/>
</linearGradient>
<linearGradient id="paint2_linear_3320_22769" x1="-106.808" y1="2377.59" x2="590.366" y2="1673.34" gradientUnits="userSpaceOnUse">
<stop offset="0.4927" stop-color="#009FE3"/>
<stop offset="0.6029" stop-color="#007BC4"/>
</linearGradient>
<linearGradient id="paint3_linear_3320_22769" x1="430.102" y1="1654.29" x2="1153.38" y2="2384.91" gradientUnits="userSpaceOnUse">
<stop offset="0.000454696" stop-color="#EC6608"/>
<stop offset="0.0466" stop-color="#E36016"/>
<stop offset="0.3154" stop-color="#B13C65"/>
<stop offset="0.4389" stop-color="#9D2E84"/>
<stop offset="0.5289" stop-color="#8A2482"/>
<stop offset="0.5597" stop-color="#831F82"/>
</linearGradient>
</defs>
</svg>
