<svg width="38" height="38" viewBox="0 0 38 38" fill="none" xmlns="http://www.w3.org/2000/svg">
<circle cx="19" cy="19" r="19" fill="#1845DE"/>
<path fill-rule="evenodd" clip-rule="evenodd" d="M11.5 9.5C10.3954 9.5 9.5 10.3954 9.5 11.5V26.5C9.5 27.6046 10.3954 28.5 11.5 28.5H26.5C27.6046 28.5 28.5 27.6046 28.5 26.5V11.5C28.5 10.3954 27.6046 9.5 26.5 9.5H11.5ZM23.9289 16.5406C24.3195 16.1501 24.3195 15.5169 23.9289 15.1264C23.5384 14.7359 22.9053 14.7359 22.5147 15.1264L17.9441 19.6971L16.5401 18.2931C16.1495 17.9026 15.5164 17.9026 15.1258 18.2931C14.7353 18.6836 14.7353 19.3168 15.1258 19.7073L17.237 21.8184L17.9441 22.5255L18.6512 21.8184L23.9289 16.5406Z" fill="white"/>
</svg>
