<svg width="38" height="38" viewBox="0 0 38 38" fill="none" xmlns="http://www.w3.org/2000/svg">
<circle cx="19" cy="19" r="19" fill="#1845DE"/>
<circle cx="14.2496" cy="13.7222" r="4.22222" fill="white"/>
<rect x="20.0547" y="9.5" width="8.44444" height="8.44444" rx="1" fill="white"/>
<path d="M23.4126 20.5C23.7975 19.8333 24.7598 19.8333 25.1447 20.5L28.8974 27C29.2823 27.6667 28.8012 28.5 28.0314 28.5H20.5259C19.7561 28.5 19.2749 27.6667 19.6598 27L23.4126 20.5Z" fill="white"/>
<path d="M9.64645 24.8195C9.45118 24.4843 9.45118 24.0713 9.64645 23.7361L11.4749 20.5973C11.6702 20.2621 12.031 20.0556 12.4216 20.0556H16.0784C16.469 20.0556 16.8298 20.2621 17.0251 20.5973L18.8535 23.7361C19.0488 24.0713 19.0488 24.4843 18.8535 24.8195L17.0251 27.9583C16.8298 28.2935 16.469 28.5 16.0784 28.5H12.4216C12.031 28.5 11.6702 28.2935 11.4749 27.9583L9.64645 24.8195Z" fill="white"/>
</svg>
