<svg width="39" height="38" viewBox="0 0 39 38" fill="none" xmlns="http://www.w3.org/2000/svg">
<circle cx="19.5" cy="19" r="19" fill="#1845DE"/>
<circle cx="19.4996" cy="25.3335" r="4.22222" fill="white"/>
<rect x="18.4453" y="11.6113" width="2.11111" height="12.6667" fill="white"/>
<rect x="10" y="18.3818" width="2.11111" height="12.6667" transform="rotate(-45 10 18.3818)" fill="white"/>
<rect x="28.457" y="15.8335" width="2.11111" height="12.6667" transform="rotate(45 28.457 15.8335)" fill="white"/>
<path d="M18.6675 8.63675C19.0633 8.04301 19.9358 8.04301 20.3316 8.63675L22.6853 12.1673C23.1284 12.8319 22.652 13.722 21.8533 13.722H17.1459C16.3472 13.722 15.8708 12.8319 16.3138 12.1673L18.6675 8.63675Z" fill="white"/>
<path d="M8.00239 16.0678C7.86245 15.3681 8.47937 14.7512 9.17909 14.8911L13.3399 15.7233C14.1231 15.8799 14.4156 16.8462 13.8509 17.411L10.5222 20.7396C9.95748 21.3044 8.99119 21.0118 8.83455 20.2286L8.00239 16.0678Z" fill="white"/>
<path d="M29.7139 14.8911C30.4136 14.7511 31.0306 15.368 30.8906 16.0678L30.0584 20.2286C29.9018 21.0117 28.9355 21.3043 28.3708 20.7396L25.0421 17.4109C24.4774 16.8461 24.7699 15.8799 25.5531 15.7232L29.7139 14.8911Z" fill="white"/>
</svg>
