<svg width="39" height="38" viewBox="0 0 39 38" fill="none" xmlns="http://www.w3.org/2000/svg">
<circle cx="19.5" cy="19" r="19" fill="#1845DE"/>
<path fill-rule="evenodd" clip-rule="evenodd" d="M16.3342 20.9936C20.4166 20.9936 23.7231 23.2329 23.7231 25.9977V28.4997H8.94531V25.9977C8.94531 23.2329 12.2518 20.9936 16.3342 20.9936ZM16.3342 11.6108C18.3754 11.6108 20.0286 13.2903 20.0286 15.3639C20.0286 17.4375 18.3754 19.117 16.3342 19.117C14.293 19.117 12.6398 17.4375 12.6398 15.3639C12.6398 13.2903 14.293 11.6108 16.3342 11.6108Z" fill="white"/>
<path fill-rule="evenodd" clip-rule="evenodd" d="M22.3771 15.8296C21.9531 15.8296 21.6094 15.3922 21.6094 14.8526V9.4214C21.6094 8.88178 21.9531 8.44434 22.3771 8.44434H29.2861C29.7101 8.44434 30.0538 8.88178 30.0538 9.4214V14.8526C30.0538 15.3922 29.7101 15.8296 29.2861 15.8296L27.2051 15.8332C27.0015 15.8332 26.8872 15.8332 26.8872 15.8332L25.4478 17.2952C25.0639 17.7838 23.9124 17.7838 23.9124 16.402V15.8296H22.3771Z" fill="white"/>
</svg>
